<svg xmlns="http://www.w3.org/2000/svg" width="16.03" height="14.25" viewBox="0 0 16.03 14.25">
  <defs>
    <style>
      .cls-1 {
        fill: #95e1d3;
        fill-rule: evenodd;
      }
    </style>
  </defs>
  <path id="SPEECH_BUBBLE_2" data-name="SPEECH BUBBLE 2" class="cls-1" d="M1257.42,6439.36a11.325,11.325,0,0,1-1.68-.25,6.357,6.357,0,0,1-5.65,2.23c2.44-1.16,2.39-3.07,1.96-3.32a5.612,5.612,0,0,1-3.07-4.77c0-3.39,3.73-6.13,8.44-6.13s7.57,2.74,7.57,6.13S1262.12,6439.36,1257.42,6439.36Zm-4.18-7.49a1.5,1.5,0,1,0,1.5,1.5A1.5,1.5,0,0,0,1253.24,6431.87Zm3.75,0a1.5,1.5,0,1,0,1.5,1.5A1.5,1.5,0,0,0,1256.99,6431.87Zm3.75,0a1.5,1.5,0,1,0,1.5,1.5A1.5,1.5,0,0,0,1260.74,6431.87Z" transform="translate(-1248.97 -6427.13)"/>
</svg>
