<svg xmlns="http://www.w3.org/2000/svg" width="19.44" height="11.25" viewBox="0 0 19.44 11.25">
  <defs>
    <style>
      .cls-1 {
        fill: #95e1d3;
        fill-rule: evenodd;
      }
    </style>
  </defs>
  <path id="VIEW" class="cls-1" d="M1199.71,6433.78v0.03a0.02,0.02,0,0,1-.01.02v0.02h0a0.694,0.694,0,0,1-.2.41c-0.21.25-.43,0.48-0.65,0.71a16.519,16.519,0,0,1-4.13,3.12,11.06,11.06,0,0,1-3.08,1.12,9.216,9.216,0,0,1-3.55-.05,13.5,13.5,0,0,1-5.51-2.87,15,15,0,0,1-2.11-2.03,0.782,0.782,0,0,1,0-1.05c0.21-.24.43-0.48,0.65-0.7a17.184,17.184,0,0,1,4.13-3.13,11.306,11.306,0,0,1,3.09-1.11,8.844,8.844,0,0,1,3.55.05,13.327,13.327,0,0,1,5.5,2.86,15,15,0,0,1,2.11,2.03,0.755,0.755,0,0,1,.2.41v0.03a0.01,0.01,0,0,1,.01.01v0.12Zm-9.72-3.84a3.645,3.645,0,1,0,3.65,3.65A3.643,3.643,0,0,0,1189.99,6429.94Zm0,5.47a1.825,1.825,0,1,1,1.82-1.82A1.82,1.82,0,0,1,1189.99,6435.41Z" transform="translate(-1180.28 -6428.13)"/>
</svg>
